<svg preserveAspectRatio="none" width="100%" height="100%" overflow="visible" style="display: block;" viewBox="0 0 18.3333 18.3333" fill="none" xmlns="http://www.w3.org/2000/svg">
<path id="&#226;&#155;&#148;&#239;&#184;&#143; Vector" fill-rule="evenodd" clip-rule="evenodd" d="M1.66667 9.16667C1.66667 5.02453 5.02453 1.66667 9.16667 1.66667C13.3088 1.66667 16.6667 5.02453 16.6667 9.16667C16.6667 13.3088 13.3088 16.6667 9.16667 16.6667C5.02453 16.6667 1.66667 13.3088 1.66667 9.16667ZM9.16667 0C4.10406 0 0 4.10406 0 9.16667C0 14.2293 4.10406 18.3333 9.16667 18.3333C14.2293 18.3333 18.3333 14.2293 18.3333 9.16667C18.3333 4.10406 14.2293 0 9.16667 0ZM8.49786 6.46303C8.78171 6.29621 9.11544 6.23523 9.43994 6.29089C9.76445 6.34655 10.0588 6.51526 10.2708 6.76714C10.4828 7.01902 10.5989 7.33781 10.5984 7.66705L10.5984 7.66833C10.5984 7.96432 10.3651 8.30353 9.8546 8.64386C9.62535 8.79669 9.39002 8.91497 9.20864 8.99558C9.11916 9.03535 9.04578 9.06464 8.99678 9.08331C8.97234 9.09262 8.95418 9.0992 8.94334 9.10306L8.93209 9.107C8.48587 9.25697 8.24496 9.73991 8.39391 10.1868C8.54309 10.6343 9.02682 10.8762 9.47436 10.727L9.47541 10.7266L9.47668 10.7262L9.47984 10.7251L9.48861 10.7221L9.51565 10.7127C9.53775 10.7048 9.56789 10.6938 9.60493 10.6797C9.67888 10.6516 9.78116 10.6106 9.90246 10.5567C10.1426 10.4499 10.4694 10.2872 10.8022 10.0653C11.4158 9.65621 12.3065 8.87139 12.3067 7.66874C12.3076 6.93636 12.0494 6.22727 11.5777 5.66697C11.1059 5.10645 10.4509 4.73101 9.72875 4.60714C9.00661 4.48328 8.26394 4.61898 7.63227 4.99022C7.0006 5.36146 6.5207 5.94427 6.27757 6.63543C6.12102 7.08045 6.35487 7.5681 6.79988 7.72465C7.24489 7.88119 7.73255 7.64735 7.88909 7.20233C7.99835 6.89175 8.214 6.62985 8.49786 6.46303ZM9.23325 12.0625C8.7615 12.0625 8.37908 12.4449 8.37908 12.9166C8.37908 13.3884 8.7615 13.7708 9.23325 13.7708H9.24262C9.71436 13.7708 10.0968 13.3884 10.0968 12.9166C10.0968 12.4449 9.71436 12.0625 9.24262 12.0625H9.23325Z" fill="var(--fill-0, white)"/>
</svg>
