<svg width="12" height="12" viewBox="0 0 12 12" fill="none" xmlns="http://www.w3.org/2000/svg">
<g clip-path="url(#clip0_1973_3320)">
<path d="M9.96222 4.35004L6.46222 6.29389V10.1503L9.9339 8.22162C9.95143 8.21182 9.96218 8.19337 9.96222 8.17328V4.35004ZM1.30841 5.23139C1.29802 5.25736 1.30886 5.28714 1.33331 5.30072L4.85382 7.25678C4.88308 7.27303 4.92 7.25953 4.93243 7.22846L5.33429 6.22309L1.71563 4.21283L1.30841 5.23139ZM5.93536 1.58686L2.492 3.49994L5.96222 5.42768L9.43243 3.49994L5.98956 1.58686C5.97278 1.57753 5.95214 1.57753 5.93536 1.58686ZM1.9627 8.17328C1.96274 8.19339 1.97347 8.21182 1.99102 8.22162L5.46222 10.1498V8.08734C5.14652 8.29539 4.7277 8.3303 4.36847 8.1308L1.9627 6.79438V8.17328ZM10.9622 8.17328C10.9622 8.55658 10.7543 8.90998 10.4192 9.09613L6.20538 11.437C6.05437 11.5208 5.87055 11.5208 5.71954 11.437L1.50567 9.09613C1.1706 8.90998 0.962739 8.55658 0.962704 8.17328V6.23871L0.84747 6.17475C0.383009 5.91667 0.182923 5.35366 0.380185 4.86029L0.998349 3.3144L1.03692 3.23822C1.08164 3.16558 1.14415 3.10483 1.21954 3.06293L5.45001 0.712833C5.76874 0.535833 6.15619 0.53582 6.47491 0.712833L10.7054 3.06293L10.7698 3.1059C10.8309 3.15354 10.8803 3.21498 10.9139 3.28559L11.8641 5.28559C11.9825 5.53501 11.8762 5.83312 11.6268 5.9516C11.3782 6.06959 11.0815 5.96473 10.9622 5.71723V8.17328Z" fill="#8C9FB8"/>
</g>
<defs>
<clipPath id="clip0_1973_3320">
<rect width="12" height="12" fill="white"/>
</clipPath>
</defs>
</svg>
